<svg xmlns="http://www.w3.org/2000/svg" viewBox="0 0 256 256" width="256" height="256">
  <!-- Background rounded square -->
  <rect width="256" height="256" rx="48" ry="48" fill="#0F1B3C"/>

  <!-- Document shape -->
  <rect x="60" y="52" width="96" height="120" rx="8" ry="8" fill="#1E3A6E"/>
  <!-- Folded corner -->
  <path d="M140 52 L156 68 L140 68 Z" fill="#0F1B3C"/>
  <rect x="140" y="52" width="16" height="16" rx="0" fill="#2D5299" opacity="0.6"/>

  <!-- Document lines -->
  <rect x="76" y="90" width="64" height="6" rx="3" fill="#4A90D9" opacity="0.7"/>
  <rect x="76" y="106" width="50" height="6" rx="3" fill="#4A90D9" opacity="0.5"/>
  <rect x="76" y="122" width="58" height="6" rx="3" fill="#4A90D9" opacity="0.5"/>
  <rect x="76" y="138" width="44" height="6" rx="3" fill="#4A90D9" opacity="0.4"/>

  <!-- Upload arrow -->
  <circle cx="172" cy="168" r="40" fill="#0078D4"/>
  <!-- Arrow up -->
  <path d="M172 148 L158 164 L165 164 L165 188 L179 188 L179 164 L186 164 Z" fill="white"/>
</svg>
